# Blender 3.3.0
# www.blender.org
mtllib garden.mtl
o Cube
v 2.584551 1.624528 -1.624528
v 2.584551 -1.624528 -1.624528
v 2.584551 1.624528 1.624528
v 2.584551 -1.624528 1.624528
v -2.584551 1.624528 -1.624528
v -2.584551 -1.624528 -1.624528
v -2.584551 1.624528 1.624528
v -2.584551 -1.624528 1.624528
v 0.000000 1.624528 1.624528
v 2.584551 1.624528 0.000000
v -2.584551 1.624528 0.000000
v 0.000000 1.624528 -1.624528
v -1.292276 1.624528 1.624528
v 2.584551 1.624528 0.812264
v -2.584551 1.624528 -0.812264
v 1.292276 1.624528 -1.624528
v 1.292276 1.624528 1.624528
v 2.584551 1.624528 -0.812264
v -2.584551 1.624528 0.812264
v -1.292276 1.624528 -1.624528
v -1.938413 1.624528 1.624528
v 2.584551 1.624528 1.218396
v -2.584551 1.624528 -1.218396
v 1.938413 1.624528 -1.624528
v 0.646138 1.624528 1.624528
v 2.584551 1.624528 -0.406132
v -2.584551 1.624528 0.406132
v -0.646138 1.624528 -1.624528
v 0.000000 1.624528 1.218396
v 1.938413 1.624528 0.000000
v -0.646138 1.624528 1.624528
v 2.584551 1.624528 0.406132
v -2.584551 1.624528 -0.406132
v 0.646138 1.624528 -1.624528
v 1.938413 1.624528 1.624528
v 2.584551 1.624528 -1.218396
v -2.584551 1.624528 1.218396
v -1.938413 1.624528 -1.624528
v 0.000000 1.624528 -1.218396
v -1.938413 1.624528 0.000000
v -1.292276 1.624528 -1.218396
v -1.938413 1.624528 -0.812264
v 1.292276 1.624528 -1.218396
v 1.938413 1.624528 -0.812264
v 1.292276 1.624528 1.218396
v 1.938413 1.624528 0.812264
v -1.292276 1.624528 1.218396
v -1.938413 1.624528 0.812264
v -1.938413 1.624528 0.406132
v -0.646138 1.624528 1.218396
v 1.938413 1.624528 0.406132
v 1.938413 1.624528 1.218396
v 0.646138 1.624528 -1.218396
v 1.938413 1.624528 -1.218396
v 1.938413 1.624528 -0.406132
v -1.938413 1.624528 -1.218396
v -0.646138 1.624528 -1.218396
v -1.938413 1.624528 -0.406132
v 0.646138 1.624528 1.218396
v -1.938413 1.624528 1.218396
v -1.292276 1.100392 0.812264
v -1.292276 1.100392 0.406132
v 0.646138 1.100392 0.812264
v 1.292276 1.100392 0.812264
v 1.292276 1.100392 0.406132
v 0.000000 1.120510 -1.218396
v 0.646138 1.100392 -0.812264
v 1.292276 1.100392 -0.812264
v 1.292276 1.100392 -1.218396
v -1.938413 1.120510 0.000000
v 1.292276 1.100392 -0.406132
v -1.938413 1.100392 -0.812264
v -1.292276 1.120510 -1.218396
v -0.646138 1.100392 -0.812264
v -1.292276 1.100392 -0.812264
v -1.938413 1.120510 -0.812264
v -1.292276 1.100392 -1.218396
v 1.292276 1.120510 -1.218396
v -1.292276 1.100392 -0.406132
v -1.292276 1.100392 0.000000
v -1.938413 1.100392 0.000000
v 1.292276 1.100392 0.000000
v 0.646138 1.100392 0.000000
v 0.000000 1.100392 -0.812264
v 0.000000 1.100392 -1.218396
v 0.000000 1.100392 0.812264
v -1.938413 1.120510 0.812264
v 0.000000 1.120510 1.218396
v 1.938413 1.120510 0.000000
v 1.938413 1.120510 -0.812264
v 1.292276 1.120510 1.218396
v 1.938413 1.120510 0.812264
v -1.292276 1.120510 1.218396
v -1.938413 1.120510 0.406132
v 0.000000 1.100392 0.406132
v -0.646138 1.120510 1.218396
v -0.646138 1.100392 0.000000
v 1.938413 1.120510 0.406132
v 1.938413 1.120510 1.218396
v 0.646138 1.120510 -1.218396
v 1.938413 1.120510 -1.218396
v 1.938413 1.120510 -0.406132
v -1.938413 1.120510 -1.218396
v -0.646138 1.120510 -1.218396
v 0.000000 1.100392 0.000000
v -1.938413 1.120510 -0.406132
v 0.000000 1.100392 -0.406132
v 0.646138 1.120510 1.218396
v -1.938413 1.120510 1.218396
v 0.000000 1.262482 -1.218396
v -1.938413 1.262482 0.000000
v -1.292276 1.262482 -1.218396
v -1.938413 1.262482 -0.812264
v 1.292276 1.262482 -1.218396
v -1.938413 1.262482 0.812264
v 0.000000 1.262482 1.218396
v 1.938413 1.262482 0.000000
v 1.938413 1.262482 -0.812264
v 1.292276 1.262482 1.218396
v 1.938413 1.262482 0.812264
v -1.292276 1.262482 1.218396
v -1.938413 1.262482 0.406132
v -0.646138 1.262482 1.218396
v 1.938413 1.262482 0.406132
v 1.938413 1.262482 1.218396
v 0.646138 1.262482 -1.218396
v 1.938413 1.262482 -1.218396
v 1.938413 1.262482 -0.406132
v -1.938413 1.262482 -1.218396
v -0.646138 1.262482 -1.218396
v -1.938413 1.262482 -0.406132
v 0.646138 1.262482 1.218396
v -1.938413 1.262482 1.218396
v -0.646138 1.100392 0.812264
v -1.938413 1.100392 0.812264
v 0.000000 1.100392 1.218396
v 1.938413 1.100392 0.000000
v 1.938413 1.100392 -0.812264
v 1.292276 1.100392 1.218396
v 1.938413 1.100392 0.812264
v -1.292276 1.100392 1.218396
v -1.938413 1.100392 0.406132
v -0.646138 1.100392 0.406132
v -0.646138 1.100392 1.218396
v 0.646138 1.100392 0.406132
v 1.938413 1.100392 0.406132
v 1.938413 1.100392 1.218396
v 0.646138 1.100392 -1.218396
v 1.938413 1.100392 -1.218396
v 1.938413 1.100392 -0.406132
v -1.938413 1.100392 -1.218396
v -0.646138 1.100392 -1.218396
v -0.646138 1.100392 -0.406132
v -1.938413 1.100392 -0.406132
v 0.646138 1.100392 -0.406132
v 0.646138 1.100392 1.218396
v -1.938413 1.100392 1.218396
vn -0.0000 1.0000 -0.0000
vn -0.0000 -0.0000 1.0000
vn -1.0000 -0.0000 -0.0000
vn -0.0000 -1.0000 -0.0000
vn 1.0000 -0.0000 -0.0000
vn -0.0000 -0.0000 -1.0000
vt 0.625000 0.500000
vt 0.375000 0.500000
vt 0.625000 0.750000
vt 0.375000 0.750000
vt 0.625000 0.250000
vt 0.875000 0.500000
vt 0.125000 0.500000
vt 0.375000 0.250000
vt 0.875000 0.750000
vt 0.625000 1.000000
vt 0.625000 0.000000
vt 0.375000 1.000000
vt 0.375000 0.000000
vt 0.125000 0.750000
vt 0.625000 0.875000
vt 0.750000 0.750000
vt 0.625000 0.625000
vt 0.625000 0.125000
vt 0.875000 0.625000
vt 0.625000 0.375000
vt 0.750000 0.500000
vt 0.625000 0.937500
vt 0.812500 0.750000
vt 0.625000 0.687500
vt 0.625000 0.187500
vt 0.875000 0.562500
vt 0.625000 0.437500
vt 0.687500 0.500000
vt 0.625000 0.812500
vt 0.687500 0.750000
vt 0.625000 0.562500
vt 0.625000 0.062500
vt 0.875000 0.687500
vt 0.625000 0.312500
vt 0.812500 0.500000
vt 0.625000 0.968750
vt 0.843750 0.750000
vt 0.625000 0.718750
vt 0.625000 0.218750
vt 0.875000 0.531250
vt 0.625000 0.468750
vt 0.656250 0.500000
vt 0.625000 0.843750
vt 0.718750 0.750000
vt 0.625000 0.593750
vt 0.625000 0.093750
vt 0.875000 0.656250
vt 0.625000 0.343750
vt 0.781250 0.500000
vt 0.750000 0.718750
vt 0.656250 0.625000
vt 0.625000 0.906250
vt 0.781250 0.750000
vt 0.625000 0.656250
vt 0.625000 0.156250
vt 0.875000 0.593750
vt 0.625000 0.406250
vt 0.718750 0.500000
vt 0.625000 0.781250
vt 0.656250 0.750000
vt 0.625000 0.531250
vt 0.625000 0.031250
vt 0.875000 0.718750
vt 0.625000 0.281250
vt 0.843750 0.500000
vt 0.750000 0.531250
vt 0.843750 0.625000
vt 0.812500 0.531250
vt 0.843750 0.562500
vt 0.687500 0.531250
vt 0.656250 0.562500
vt 0.687500 0.718750
vt 0.656250 0.687500
vt 0.812500 0.718750
vt 0.843750 0.687500
vt 0.843750 0.656250
vt 0.781250 0.718750
vt 0.656250 0.656250
vt 0.656250 0.718750
vt 0.718750 0.531250
vt 0.656250 0.531250
vt 0.656250 0.593750
vt 0.843750 0.531250
vt 0.781250 0.531250
vt 0.843750 0.593750
vt 0.718750 0.718750
vt 0.843750 0.718750
vt 0.812500 0.687500
vt 0.812500 0.656250
vt 0.718750 0.687500
vt 0.687500 0.687500
vt 0.687500 0.656250
vt 0.750000 0.531250
vt 0.718750 0.562500
vt 0.687500 0.562500
vt 0.687500 0.531250
vt 0.843750 0.625000
vt 0.687500 0.593750
vt 0.843750 0.562500
vt 0.812500 0.531250
vt 0.781250 0.562500
vt 0.812500 0.562500
vt 0.843750 0.562500
vt 0.812500 0.531250
vt 0.687500 0.531250
vt 0.812500 0.593750
vt 0.812500 0.625000
vt 0.843750 0.625000
vt 0.687500 0.625000
vt 0.718750 0.625000
vt 0.750000 0.562500
vt 0.750000 0.531250
vt 0.750000 0.687500
vt 0.843750 0.687500
vt 0.750000 0.718750
vt 0.656250 0.625000
vt 0.656250 0.562500
vt 0.687500 0.718750
vt 0.656250 0.687500
vt 0.812500 0.718750
vt 0.843750 0.656250
vt 0.750000 0.656250
vt 0.781250 0.718750
vt 0.781250 0.625000
vt 0.656250 0.656250
vt 0.656250 0.718750
vt 0.718750 0.531250
vt 0.656250 0.531250
vt 0.656250 0.593750
vt 0.843750 0.531250
vt 0.781250 0.531250
vt 0.750000 0.625000
vt 0.843750 0.593750
vt 0.750000 0.593750
vt 0.718750 0.718750
vt 0.843750 0.718750
vt 0.750000 0.531250
vt 0.843750 0.625000
vt 0.812500 0.531250
vt 0.843750 0.562500
vt 0.687500 0.531250
vt 0.843750 0.687500
vt 0.750000 0.718750
vt 0.656250 0.625000
vt 0.656250 0.562500
vt 0.687500 0.718750
vt 0.656250 0.687500
vt 0.812500 0.718750
vt 0.843750 0.656250
vt 0.781250 0.718750
vt 0.656250 0.656250
vt 0.656250 0.718750
vt 0.718750 0.531250
vt 0.656250 0.531250
vt 0.656250 0.593750
vt 0.843750 0.531250
vt 0.781250 0.531250
vt 0.843750 0.593750
vt 0.718750 0.718750
vt 0.843750 0.718750
vt 0.781250 0.687500
vt 0.843750 0.687500
vt 0.750000 0.718750
vt 0.656250 0.625000
vt 0.656250 0.562500
vt 0.687500 0.718750
vt 0.656250 0.687500
vt 0.812500 0.718750
vt 0.843750 0.656250
vt 0.781250 0.656250
vt 0.781250 0.718750
vt 0.718750 0.656250
vt 0.656250 0.656250
vt 0.656250 0.718750
vt 0.718750 0.531250
vt 0.656250 0.531250
vt 0.656250 0.593750
vt 0.843750 0.531250
vt 0.781250 0.531250
vt 0.781250 0.593750
vt 0.843750 0.593750
vt 0.718750 0.593750
vt 0.718750 0.718750
vt 0.843750 0.718750
s 0
usemtl Material
f 60/87/1 37/63/1 7/9/1 21/37/1
f 4/4/2 3/3/2 35/59/2 17/29/2 25/43/2 9/15/2 31/52/2 13/22/2 21/36/2 7/10/2 8/12/2
f 8/13/3 7/11/3 37/62/3 19/32/3 27/46/3 11/18/3 33/55/3 15/25/3 23/39/3 5/5/3 6/8/3
f 6/7/4 2/2/4 4/4/4 8/14/4
f 2/2/5 1/1/5 36/61/5 18/31/5 26/45/5 10/17/5 32/54/5 14/24/5 22/38/5 3/3/5 4/4/5
f 6/8/6 5/5/6 38/64/6 20/34/6 28/48/6 12/20/6 34/57/6 16/27/6 24/41/6 1/1/6 2/2/6
f 59/86/1 29/50/1 9/16/1 25/44/1
f 58/85/1 33/56/1 11/19/1 40/67/1
f 56/83/1 23/40/1 15/26/1 42/69/1
f 52/79/1 45/72/1 17/30/1 35/60/1
f 50/77/1 47/74/1 13/23/1 31/53/1
f 49/76/1 27/47/1 19/33/1 48/75/1
f 40/67/1 11/19/1 27/47/1 49/76/1
f 54/81/2 43/70/2 78/105/2 101/128/2
f 46/73/3 51/78/3 98/125/3 92/119/3
f 29/50/1 50/77/1 31/53/1 9/16/1
f 40/67/5 49/76/5 94/121/5 70/97/5
f 41/68/2 56/83/2 103/130/2 73/100/2
f 45/72/6 52/79/6 99/126/6 91/118/6
f 49/76/5 48/75/5 87/114/5 94/121/5
f 29/50/6 59/86/6 108/135/6 88/115/6
f 32/54/1 51/78/1 46/73/1 14/24/1
f 10/17/1 30/51/1 51/78/1 32/54/1
f 56/83/5 42/69/5 76/103/5 103/130/5
f 22/38/1 52/79/1 35/60/1 3/3/1
f 14/24/1 46/73/1 52/79/1 22/38/1
f 52/79/3 46/73/3 92/119/3 99/126/3
f 59/86/6 45/72/6 91/118/6 108/135/6
f 16/28/1 34/58/1 53/80/1 43/70/1
f 34/58/1 12/21/1 39/66/1 53/80/1
f 36/61/1 54/81/1 44/71/1 18/31/1
f 1/1/1 24/42/1 54/81/1 36/61/1
f 24/42/1 16/28/1 43/70/1 54/81/1
f 26/45/1 55/82/1 30/51/1 10/17/1
f 18/31/1 44/71/1 55/82/1 26/45/1
f 57/84/2 41/68/2 73/100/2 104/131/2
f 44/71/3 54/81/3 101/128/3 90/117/3
f 20/35/1 38/65/1 56/83/1 41/68/1
f 38/65/1 5/6/1 23/40/1 56/83/1
f 39/66/2 57/84/2 104/131/2 66/93/2
f 12/21/1 28/49/1 57/84/1 39/66/1
f 28/49/1 20/35/1 41/68/1 57/84/1
f 53/80/2 39/66/2 66/93/2 100/127/2
f 42/69/5 58/85/5 106/133/5 76/103/5
f 43/70/2 53/80/2 100/127/2 78/105/2
f 47/74/6 50/77/6 96/123/6 93/120/6
f 58/85/5 40/67/5 70/97/5 106/133/5
f 42/69/1 15/26/1 33/56/1 58/85/1
f 55/82/3 44/71/3 90/117/3 102/129/3
f 60/87/6 47/74/6 93/120/6 109/136/6
f 50/77/6 29/50/6 88/115/6 96/123/6
f 45/72/1 59/86/1 25/44/1 17/30/1
f 30/51/3 55/82/3 102/129/3 89/116/3
f 51/78/3 30/51/3 89/116/3 98/125/3
f 47/74/1 60/87/1 21/37/1 13/23/1
f 48/75/5 60/87/5 109/136/5 87/114/5
f 48/75/1 19/33/1 37/63/1 60/87/1
f 95/122/1 143/170/1 134/161/1 86/113/1
f 80/107/1 81/108/1 142/169/1 62/89/1
f 62/89/1 142/169/1 135/162/1 61/88/1
f 143/170/1 62/89/1 61/88/1 134/161/1
f 145/172/1 95/122/1 86/113/1 63/90/1
f 146/173/1 65/92/1 64/91/1 140/167/1
f 148/175/1 85/112/1 84/111/1 67/94/1
f 149/176/1 69/96/1 68/95/1 138/165/1
f 150/177/1 71/98/1 82/109/1 137/164/1
f 152/179/1 77/104/1 75/102/1 74/101/1
f 153/180/1 79/106/1 80/107/1 97/124/1
f 155/182/1 107/134/1 105/132/1 83/110/1
f 100/127/6 66/93/6 110/137/6 126/153/6
f 73/100/6 103/130/6 129/156/6 112/139/6
f 78/105/6 100/127/6 126/153/6 114/141/6
f 103/130/3 76/103/3 113/140/3 129/156/3
f 91/118/2 99/126/2 125/152/2 119/146/2
f 102/129/5 90/117/5 118/145/5 128/155/5
f 109/136/2 93/120/2 121/148/2 133/160/2
f 99/126/5 92/119/5 120/147/5 125/152/5
f 89/116/5 102/129/5 128/155/5 117/144/5
f 93/120/2 96/123/2 123/150/2 121/148/2
f 87/114/3 109/136/3 133/160/3 115/142/3
f 104/131/6 73/100/6 112/139/6 130/157/6
f 70/97/3 94/121/3 122/149/3 111/138/3
f 101/128/6 78/105/6 114/141/6 127/154/6
f 96/123/2 88/115/2 116/143/2 123/150/2
f 88/115/2 108/135/2 132/159/2 116/143/2
f 66/93/6 104/131/6 130/157/6 110/137/6
f 98/125/5 89/116/5 117/144/5 124/151/5
f 94/121/3 87/114/3 115/142/3 122/149/3
f 76/103/3 106/133/3 131/158/3 113/140/3
f 90/117/5 101/128/5 127/154/5 118/145/5
f 108/135/2 91/118/2 119/146/2 132/159/2
f 92/119/5 98/125/5 124/151/5 120/147/5
f 106/133/3 70/97/3 111/138/3 131/158/3
f 119/146/6 125/152/6 147/174/6 139/166/6
f 128/155/3 118/145/3 138/165/3 150/177/3
f 133/160/6 121/148/6 141/168/6 157/184/6
f 125/152/3 120/147/3 140/167/3 147/174/3
f 117/144/3 128/155/3 150/177/3 137/164/3
f 121/148/6 123/150/6 144/171/6 141/168/6
f 115/142/5 133/160/5 157/184/5 135/162/5
f 130/157/2 112/139/2 77/104/2 152/179/2
f 111/138/5 122/149/5 142/169/5 81/108/5
f 127/154/2 114/141/2 69/96/2 149/176/2
f 123/150/6 116/143/6 136/163/6 144/171/6
f 116/143/6 132/159/6 156/183/6 136/163/6
f 110/137/2 130/157/2 152/179/2 85/112/2
f 124/151/3 117/144/3 137/164/3 146/173/3
f 122/149/5 115/142/5 135/162/5 142/169/5
f 113/140/5 131/158/5 154/181/5 72/99/5
f 118/145/3 127/154/3 149/176/3 138/165/3
f 132/159/6 119/146/6 139/166/6 156/183/6
f 120/147/3 124/151/3 146/173/3 140/167/3
f 131/158/5 111/138/5 81/108/5 154/181/5
f 126/153/2 110/137/2 85/112/2 148/175/2
f 112/139/2 129/156/2 151/178/2 77/104/2
f 114/141/2 126/153/2 148/175/2 69/96/2
f 129/156/5 113/140/5 72/99/5 151/178/5
f 105/132/1 97/124/1 143/170/1 95/122/1
f 97/124/1 80/107/1 62/89/1 143/170/1
f 86/113/1 134/161/1 144/171/1 136/163/1
f 134/161/1 61/88/1 141/168/1 144/171/1
f 65/92/1 145/172/1 63/90/1 64/91/1
f 82/109/1 83/110/1 145/172/1 65/92/1
f 83/110/1 105/132/1 95/122/1 145/172/1
f 137/164/1 82/109/1 65/92/1 146/173/1
f 140/167/1 64/91/1 139/166/1 147/174/1
f 69/96/1 148/175/1 67/94/1 68/95/1
f 138/165/1 68/95/1 71/98/1 150/177/1
f 77/104/1 151/178/1 72/99/1 75/102/1
f 85/112/1 152/179/1 74/101/1 84/111/1
f 107/134/1 153/180/1 97/124/1 105/132/1
f 84/111/1 74/101/1 153/180/1 107/134/1
f 74/101/1 75/102/1 79/106/1 153/180/1
f 79/106/1 154/181/1 81/108/1 80/107/1
f 75/102/1 72/99/1 154/181/1 79/106/1
f 71/98/1 155/182/1 83/110/1 82/109/1
f 68/95/1 67/94/1 155/182/1 71/98/1
f 67/94/1 84/111/1 107/134/1 155/182/1
f 64/91/1 63/90/1 156/183/1 139/166/1
f 63/90/1 86/113/1 136/163/1 156/183/1
f 61/88/1 135/162/1 157/184/1 141/168/1
o Plane
v -2.184319 1.176470 1.309527
v 2.184319 1.176470 1.309527
v -2.184319 1.176470 -1.309527
v 2.184319 1.176470 -1.309527
vn -0.0000 1.0000 -0.0000
vt 0.000000 0.000000
vt 1.000000 0.000000
vt 0.000000 1.000000
vt 1.000000 1.000000
s 0
usemtl Material.002
f 158/185/7 159/186/7 161/188/7 160/187/7
