# Blender 3.2.2
# www.blender.org
mtllib untitled.mtl
o Cylinder
v 0.000000 -1.000000 -1.000000
v 0.000000 1.000000 -1.000000
v 0.195090 -1.000000 -0.980785
v 0.195090 1.000000 -0.980785
v 0.382683 -1.000000 -0.923880
v 0.382683 1.000000 -0.923880
v 0.555570 -1.000000 -0.831470
v 0.555570 1.000000 -0.831470
v 0.707107 -1.000000 -0.707107
v 0.707107 1.000000 -0.707107
v 0.831470 -1.000000 -0.555570
v 0.831470 1.000000 -0.555570
v 0.923880 -1.000000 -0.382683
v 0.923880 1.000000 -0.382683
v 0.980785 -1.000000 -0.195090
v 0.980785 1.000000 -0.195090
v 1.000000 -1.000000 0.000000
v 1.000000 1.000000 0.000000
v 0.980785 -1.000000 0.195090
v 0.980785 1.000000 0.195090
v 0.923880 -1.000000 0.382683
v 0.923880 1.000000 0.382683
v 0.831470 -1.000000 0.555570
v 0.831470 1.000000 0.555570
v 0.707107 -1.000000 0.707107
v 0.707107 1.000000 0.707107
v 0.555570 -1.000000 0.831470
v 0.555570 1.000000 0.831470
v 0.382683 -1.000000 0.923880
v 0.382683 1.000000 0.923880
v 0.195090 -1.000000 0.980785
v 0.195090 1.000000 0.980785
v -0.000000 -1.000000 1.000000
v -0.000000 1.000000 1.000000
v -0.195090 -1.000000 0.980785
v -0.195090 1.000000 0.980785
v -0.382683 -1.000000 0.923880
v -0.382683 1.000000 0.923880
v -0.555570 -1.000000 0.831470
v -0.555570 1.000000 0.831470
v -0.707107 -1.000000 0.707107
v -0.707107 1.000000 0.707107
v -0.831469 -1.000000 0.555570
v -0.831469 1.000000 0.555570
v -0.923880 -1.000000 0.382684
v -0.923880 1.000000 0.382684
v -0.980785 -1.000000 0.195090
v -0.980785 1.000000 0.195090
v -1.000000 -1.000000 -0.000000
v -1.000000 1.000000 -0.000000
v -0.980785 -1.000000 -0.195090
v -0.980785 1.000000 -0.195090
v -0.923879 -1.000000 -0.382684
v -0.923879 1.000000 -0.382684
v -0.831470 -1.000000 -0.555570
v -0.831470 1.000000 -0.555570
v -0.707107 -1.000000 -0.707107
v -0.707107 1.000000 -0.707107
v -0.555570 -1.000000 -0.831470
v -0.555570 1.000000 -0.831470
v -0.382683 -1.000000 -0.923880
v -0.382683 1.000000 -0.923880
v -0.195090 -1.000000 -0.980785
v -0.195090 1.000000 -0.980785
vn 0.0980 -0.0000 -0.9952
vn 0.2903 -0.0000 -0.9569
vn 0.4714 -0.0000 -0.8819
vn 0.6344 -0.0000 -0.7730
vn 0.7730 -0.0000 -0.6344
vn 0.8819 -0.0000 -0.4714
vn 0.9569 -0.0000 -0.2903
vn 0.9952 -0.0000 -0.0980
vn 0.9952 -0.0000 0.0980
vn 0.9569 -0.0000 0.2903
vn 0.8819 -0.0000 0.4714
vn 0.7730 -0.0000 0.6344
vn 0.6344 -0.0000 0.7730
vn 0.4714 -0.0000 0.8819
vn 0.2903 -0.0000 0.9569
vn 0.0980 -0.0000 0.9952
vn -0.0980 -0.0000 0.9952
vn -0.2903 -0.0000 0.9569
vn -0.4714 -0.0000 0.8819
vn -0.6344 -0.0000 0.7730
vn -0.7730 -0.0000 0.6344
vn -0.8819 -0.0000 0.4714
vn -0.9569 -0.0000 0.2903
vn -0.9952 -0.0000 0.0980
vn -0.9952 -0.0000 -0.0980
vn -0.9569 -0.0000 -0.2903
vn -0.8819 -0.0000 -0.4714
vn -0.7730 -0.0000 -0.6344
vn -0.6344 -0.0000 -0.7730
vn -0.4714 -0.0000 -0.8819
vn -0.0000 1.0000 -0.0000
vn -0.2903 -0.0000 -0.9569
vn -0.0980 -0.0000 -0.9952
vn -0.0000 -1.0000 -0.0000
vt 0.700195 0.174805
vt 0.000000 0.500000
vt 0.750000 0.490000
vt 1.000000 1.000000
vt 0.250000 0.490000
vt 0.000000 1.000000
vt 0.668945 0.174805
vt 0.796822 0.485388
vt 0.968750 1.000000
vt 0.296822 0.485388
vt 0.637695 0.174805
vt 0.841844 0.471731
vt 0.937500 1.000000
vt 0.714891 0.728567
vt 0.606445 0.174805
vt 0.883337 0.449553
vt 0.906250 1.000000
vt 0.756384 0.706389
vt 0.575195 0.174805
vt 0.919706 0.419706
vt 0.875000 1.000000
vt 0.792753 0.676542
vt 0.543945 0.174805
vt 0.843750 0.500000
vt 0.949553 0.383337
vt 0.843750 1.000000
vt 0.822600 0.640173
vt 0.812500 0.500000
vt 0.971731 0.341844
vt 0.812500 1.000000
vt 0.844778 0.598680
vt 0.781250 0.500000
vt 0.985388 0.296822
vt 0.781250 1.000000
vt 0.858435 0.553658
vt 0.750000 0.500000
vt 0.990000 0.250000
vt 0.750000 1.000000
vt 0.863047 0.506836
vt 0.718750 0.500000
vt 0.985388 0.203178
vt 0.718750 1.000000
vt 0.858435 0.460014
vt 0.198242 0.218750
vt 0.687500 0.500000
vt 0.971731 0.158156
vt 0.198242 0.718750
vt 0.687500 1.000000
vt 0.844778 0.414992
vt 0.656250 0.500000
vt 0.949553 0.116663
vt 0.656250 1.000000
vt 0.449553 0.116663
vt 0.625000 0.500000
vt 0.919706 0.080294
vt 0.625000 1.000000
vt 0.419706 0.080294
vt 0.593750 0.500000
vt 0.883337 0.050447
vt 0.593750 1.000000
vt 0.383337 0.050447
vt 0.562500 0.500000
vt 0.841844 0.028269
vt 0.562500 1.000000
vt 0.341844 0.028269
vt 0.531250 0.500000
vt 0.796822 0.014612
vt 0.531250 1.000000
vt 0.296822 0.014612
vt 0.500000 0.500000
vt 0.750000 0.010000
vt 0.500000 1.000000
vt 0.250000 0.010000
vt 0.468750 0.500000
vt 0.703178 0.014612
vt 0.468750 1.000000
vt 0.203178 0.014612
vt 0.437500 0.500000
vt 0.658156 0.028269
vt 0.437500 1.000000
vt 0.158156 0.028269
vt 0.406250 0.500000
vt 0.616663 0.050447
vt 0.406250 1.000000
vt 0.116663 0.050447
vt 0.375000 0.500000
vt 0.580294 0.080294
vt 0.375000 1.000000
vt 0.080294 0.080294
vt 0.343750 0.500000
vt 0.550447 0.116663
vt 0.343750 1.000000
vt 0.050447 0.116663
vt 0.312500 0.500000
vt 0.528269 0.158156
vt 0.312500 1.000000
vt 0.028269 0.158156
vt 0.281250 0.500000
vt 0.514612 0.203178
vt 0.281250 1.000000
vt 0.014612 0.203178
vt 0.250000 0.500000
vt 0.510000 0.250000
vt 0.250000 1.000000
vt 0.010000 0.250000
vt 0.218750 0.500000
vt 0.514612 0.296822
vt 0.218750 1.000000
vt 0.014612 0.296822
vt 0.187500 0.500000
vt 0.528269 0.341844
vt 0.187500 1.000000
vt 0.028269 0.341844
vt 0.156250 0.500000
vt 0.550447 0.383337
vt 0.156250 1.000000
vt 0.050447 0.383337
vt 0.125000 0.500000
vt 0.580294 0.419706
vt 0.125000 1.000000
vt 0.080294 0.419706
vt 0.093750 0.500000
vt 0.616663 0.449553
vt 0.093750 1.000000
vt 0.116663 0.449553
vt 0.062500 0.500000
vt 0.658156 0.471731
vt 0.158156 0.471731
vt 0.062500 1.000000
vt 0.031250 0.500000
vt 0.703178 0.485388
vt 0.203178 0.485388
vt 0.031250 1.000000
s 0
usemtl Material.001
f 1/1/1 2/4/1 4/9/1 3/7/1
f 3/7/2 4/9/2 6/13/2 5/11/2
f 5/11/3 6/13/3 8/17/3 7/15/3
f 7/15/4 8/17/4 10/21/4 9/19/4
f 9/19/5 10/21/5 12/26/5 11/23/5
f 11/24/6 12/26/6 14/30/6 13/28/6
f 13/28/7 14/30/7 16/34/7 15/32/7
f 15/32/8 16/34/8 18/38/8 17/36/8
f 17/36/9 18/38/9 20/42/9 19/40/9
f 19/40/10 20/42/10 22/47/10 21/44/10
f 21/45/11 22/48/11 24/52/11 23/50/11
f 23/50/12 24/52/12 26/56/12 25/54/12
f 25/54/13 26/56/13 28/60/13 27/58/13
f 27/58/14 28/60/14 30/64/14 29/62/14
f 29/62/15 30/64/15 32/68/15 31/66/15
f 31/66/16 32/68/16 34/72/16 33/70/16
f 33/70/17 34/72/17 36/76/17 35/74/17
f 35/74/18 36/76/18 38/80/18 37/78/18
f 37/78/19 38/80/19 40/84/19 39/82/19
f 39/82/20 40/84/20 42/88/20 41/86/20
f 41/86/21 42/88/21 44/92/21 43/90/21
f 43/90/22 44/92/22 46/96/22 45/94/22
f 45/94/23 46/96/23 48/100/23 47/98/23
f 47/98/24 48/100/24 50/104/24 49/102/24
f 49/102/25 50/104/25 52/108/25 51/106/25
f 51/106/26 52/108/26 54/112/26 53/110/26
f 53/110/27 54/112/27 56/116/27 55/114/27
f 55/114/28 56/116/28 58/120/28 57/118/28
f 57/118/29 58/120/29 60/124/29 59/122/29
f 59/122/30 60/124/30 62/129/30 61/126/30
f 4/10/31 2/5/31 64/132/31 62/128/31 60/125/31 58/121/31 56/117/31 54/113/31 52/109/31 50/105/31 48/101/31 46/97/31 44/93/31 42/89/31 40/85/31 38/81/31 36/77/31 34/73/31 32/69/31 30/65/31 28/61/31 26/57/31 24/53/31 22/49/31 20/43/31 18/39/31 16/35/31 14/31/31 12/27/31 10/22/31 8/18/31 6/14/31
f 61/126/32 62/129/32 64/133/32 63/130/32
f 63/130/33 64/133/33 2/6/33 1/2/33
f 1/3/34 3/8/34 5/12/34 7/16/34 9/20/34 11/25/34 13/29/34 15/33/34 17/37/34 19/41/34 21/46/34 23/51/34 25/55/34 27/59/34 29/63/34 31/67/34 33/71/34 35/75/34 37/79/34 39/83/34 41/87/34 43/91/34 45/95/34 47/99/34 49/103/34 51/107/34 53/111/34 55/115/34 57/119/34 59/123/34 61/127/34 63/131/34
